<?xml version="1.0" encoding="UTF-8"?> <svg xmlns="http://www.w3.org/2000/svg" xmlns:xlink="http://www.w3.org/1999/xlink" width="446px" height="84px" viewBox="0 0 446 84" version="1.1"><title>PeakActivity_Logo_high_white</title><defs><polygon id="path-1" points="0.108151336 0.0642174908 35.7638646 0.0642174908 35.7638646 44.4132284 0.108151336 44.4132284"></polygon></defs><g id="PeakActivity_Logo_high_white" stroke="none" stroke-width="1" fill="none" fill-rule="evenodd"><g id="PeakActivity_Logo_high" transform="translate(23.000000, 19.000000)"><path d="M22.6789707,19.5737779 C24.3257469,17.746981 25.1508565,15.4152865 25.1508565,12.5835395 C25.1508565,9.74997548 24.3368861,7.49115905 22.7099578,5.80709018 C21.0822195,4.12423258 18.8675474,3.28219815 16.0671569,3.28219815 L2.59563207,3.28219815 L2.59563207,22.3154872 L16.0671569,22.3154872 C18.8264337,22.3154872 21.0305742,21.4019878 22.6789707,19.5737779 M24.5329357,4.08325128 C26.6744942,6.25970136 27.7456785,9.09306345 27.7456785,12.5835395 C27.7456785,14.8835391 27.2612253,16.9667213 26.2941417,18.8344995 C25.3254379,20.7040945 23.9549134,22.1602428 22.184391,23.2081931 C20.4128559,24.2545284 18.3737779,24.7784026 16.0671569,24.7784026 L2.59563207,24.7784026 L2.59563207,42.7035816 C2.59563207,43.0312301 2.46155682,43.3193104 2.19381138,43.5647945 C1.92545834,43.8116916 1.62692825,43.9352412 1.2982211,43.9352412 C0.927387582,43.9352412 0.618528429,43.8116916 0.370833514,43.5647945 C0.123948722,43.3193104 0,43.0312301 0,42.7035816 L0,2.05074045 C0,1.72147692 0.123948722,1.43339657 0.370833514,1.18791255 C0.618528429,0.941015372 0.905919339,0.817465845 1.23624673,0.817465845 L16.0671569,0.817465845 C19.5678982,0.817465845 22.3899595,1.90659933 24.5329357,4.08325128" id="Fill-1" fill="#FFFFFF"></path><path d="M58.8507522,41.8409152 C59.0976369,42.0863992 59.2215857,42.3744796 59.2215857,42.7033393 C59.2215857,43.0725748 59.0976369,43.3699415 58.8507522,43.596449 C58.6038674,43.8227546 58.3148562,43.9352008 57.9859465,43.9352008 L34.6894601,43.9352008 C34.3591327,43.9352008 34.0715393,43.8116513 33.8238443,43.5647541 C33.5769595,43.3192701 33.4530108,43.0311897 33.4530108,42.7033393 L33.4530108,2.05070007 C33.4530108,1.72143655 33.5769595,1.4333562 33.8238443,1.18787217 C34.0715393,0.940974996 34.3591327,0.817627348 34.6894601,0.817627348 L57.9859465,0.817627348 C58.3148562,0.817627348 58.6038674,0.940974996 58.8507522,1.18787217 C59.0976369,1.4333562 59.2215857,1.72143655 59.2215857,2.05070007 C59.2215857,2.41953175 59.0976369,2.7187154 58.8507522,2.94340596 C58.6038674,3.16971155 58.3148562,3.28215777 57.9859465,3.28215777 L36.0488454,3.28215777 L36.0488454,20.4666452 L55.2045939,20.4666452 C55.5341112,20.4666452 55.8231223,20.5899929 56.0702097,20.8370919 C56.3170944,21.0823741 56.4408406,21.3704544 56.4408406,21.6993142 C56.4408406,22.0685496 56.3170944,22.3661183 56.0702097,22.5924239 C55.8231223,22.8185276 55.5341112,22.9311757 55.2045939,22.9311757 L36.0488454,22.9311757 L36.0488454,41.4704685 L57.9859465,41.4704685 C58.3148562,41.4704685 58.6038674,41.594018 58.8507522,41.8409152" id="Fill-3" fill="#FFFFFF"></path><path d="M74.5033492,28.1041257 L93.2273025,28.1041257 L83.7727694,4.88408236 L74.5033492,28.1041257 Z M101.878194,42.7637211 C101.878194,43.1341678 101.754245,43.4222482 101.507361,43.626549 C101.260476,43.832263 100.951617,43.935221 100.580783,43.935221 C100.291772,43.935221 100.033748,43.8635542 99.808129,43.7200187 C99.5810922,43.5758776 99.427169,43.3812669 99.3445365,43.1341678 L94.1538799,30.4455104 L94.2158543,30.568858 L73.5147974,30.568858 L68.5092538,43.1341678 C68.3028751,43.6677322 67.9320416,43.935221 67.3969558,43.935221 C67.0261223,43.935221 66.7267821,43.832263 66.501163,43.626549 C66.2741262,43.4222482 66.1398484,43.175351 66.0993423,42.8872707 C66.0580261,42.724153 66.0778741,42.518439 66.1613167,42.2715418 L82.7834074,1.49494927 C82.9073562,1.16730077 83.0620895,0.952098491 83.2472025,0.849342431 C83.4321129,0.746384492 83.6688712,0.695713036 83.9578823,0.695713036 C84.5756006,0.695713036 84.9869403,0.963201798 85.1933189,1.49494927 L101.81622,42.2715418 C101.856726,42.3948895 101.878194,42.5594203 101.878194,42.7637211 L101.878194,42.7637211 Z" id="Fill-5" fill="#FFFFFF"></path><path d="M141.282485,42.9490858 C141.282485,43.401697 141.128562,43.7293455 140.819501,43.9352614 C140.510034,44.1393603 140.190643,44.2421164 139.861126,44.2421164 C139.531001,44.2421164 139.243407,44.0981772 138.996523,43.8113081 L120.458492,20.9605002 L111.189072,29.5209481 L111.189072,42.6420289 C111.147554,43.0108606 111.003959,43.3193306 110.756264,43.5648147 C110.50938,43.8113081 110.220166,43.9352614 109.891459,43.9352614 C109.478702,43.9352614 109.159513,43.8113081 108.933084,43.5648147 C108.706857,43.3193306 108.593238,43.0108606 108.593238,42.6420289 L108.593238,2.11233352 C108.593238,1.74188682 108.717186,1.43341676 108.964071,1.18793273 C109.211766,0.941035559 109.520625,0.817486033 109.891459,0.817486033 C110.262292,0.817486033 110.571152,0.941035559 110.818239,1.18793273 C111.065124,1.43341676 111.189072,1.74188682 111.189072,2.11233352 L111.189072,26.3805291 L137.884022,1.43341676 C138.130907,1.18793273 138.41931,1.06438321 138.749638,1.06438321 C139.078345,1.06438321 139.367356,1.18793273 139.614241,1.43341676 C139.861126,1.68031393 139.985074,1.96839428 139.985074,2.29604278 C139.985074,2.62530631 139.861126,2.91177163 139.614241,3.15866881 L122.497571,19.0499238 L140.973626,42.0864598 C141.179195,42.3743383 141.282485,42.6624186 141.282485,42.9490858" id="Fill-7" fill="#FFFFFF"></path><g id="Group-11" transform="translate(183.695247, 0.137681)"><mask id="mask-2" fill="white"><use xlink:href="#path-1"></use></mask><g id="Clip-10"></g><path d="M35.7638646,5.23876236 C35.7638646,5.56802589 35.680422,5.83389962 35.5159672,6.03961362 C35.2692849,6.36887715 34.9602232,6.53199482 34.5893897,6.53199482 C34.4243273,6.53199482 34.1774425,6.44962847 33.8479252,6.28509765 C30.016654,3.69863273 25.9585485,2.40519839 21.674824,2.40519839 C18.2143863,2.40519839 15.0318206,3.25853801 12.1273293,4.96158344 C9.22283811,6.66644578 6.92573613,9.02680699 5.23744112,12.0452915 C3.54793091,15.0623629 2.70378341,18.4609842 2.70378341,22.2393387 C2.70378341,26.017895 3.54793091,29.4149014 5.23744112,32.4319727 C6.92573613,35.4506591 9.22283811,37.8124335 12.1273293,39.5156808 C15.0318206,41.2201394 18.2143863,42.0720659 21.674824,42.0720659 C25.9996622,42.0720659 30.0375147,40.7990212 33.7857483,38.2539414 C33.9915194,38.0894105 34.2394169,38.0068423 34.5276179,38.0068423 C34.9389575,38.0068423 35.2692849,38.1717769 35.5159672,38.4994254 C35.680422,38.7049375 35.7638646,38.9520366 35.7638646,39.2387038 C35.7638646,39.6501318 35.5988022,39.9777803 35.2692849,40.2248793 C33.6628123,41.3739707 31.5927471,42.3601462 29.0592919,43.1815891 C26.5254317,44.0018206 24.0632673,44.4132486 21.674824,44.4132486 C17.7601102,44.4132486 14.1560783,43.4488759 10.8609055,41.5181118 C7.56411256,39.5881551 4.94863249,36.9292159 3.01264256,33.5414959 C1.07604504,30.1541798 0.108151336,26.3867267 0.108151336,22.2393387 C0.108151336,18.0921526 1.07604504,14.3232864 3.01264256,10.9357683 C4.94863249,7.54825024 7.56411256,4.89052227 10.8609055,2.95935435 C14.1560783,1.02959957 17.7601102,0.0642174908 21.674824,0.0642174908 C24.1465073,0.0642174908 26.5448746,0.434462313 28.8733688,1.17374069 C31.2006479,1.91301906 33.3120293,2.93876276 35.2073106,4.25258681 C35.5781441,4.54066716 35.7638646,4.86831566 35.7638646,5.23876236" id="Fill-9" fill="#FFFFFF" mask="url(#mask-2)"></path></g><path d="M256.825804,1.15631859 C257.073498,1.38262418 257.197245,1.65960122 257.197245,1.98906662 C257.197245,2.35769642 257.083017,2.64577677 256.857398,2.85007762 C256.630362,3.05740665 256.332034,3.15874956 255.96039,3.15874956 L242.180614,3.15874956 L242.180614,42.7036825 C242.180614,43.031331 242.056868,43.3194114 241.81059,43.5646935 C241.563098,43.8115907 241.273884,43.9351402 240.945177,43.9351402 C240.575356,43.9351402 240.275004,43.8115907 240.049587,43.5646935 C239.82255,43.3194114 239.709741,43.031331 239.709741,42.7036825 L239.709741,3.15874956 L225.928546,3.15874956 C225.598219,3.15874956 225.311031,3.04630334 225.063943,2.81999775 C224.816248,2.59510531 224.69311,2.31812827 224.69311,1.98906662 C224.69311,1.65960122 224.816248,1.38262418 225.063943,1.15631859 C225.311031,0.93162803 225.598219,0.817566784 225.928546,0.817566784 L255.96039,0.817566784 C256.290515,0.817566784 256.579526,0.93162803 256.825804,1.15631859" id="Fill-12" fill="#FFFFFF"></path><path d="M267.700744,43.5647743 C267.452644,43.8116715 267.165456,43.935221 266.835331,43.935221 C266.423789,43.935221 266.102981,43.8116715 265.877564,43.5647743 C265.650527,43.3192903 265.537718,43.0108202 265.537718,42.6419885 L265.537718,2.11249502 C265.537718,1.74204832 265.661666,1.43337638 265.909361,1.18789236 C266.155436,0.940995184 266.464903,0.817445657 266.835331,0.817445657 C267.206975,0.817445657 267.514821,0.940995184 267.762719,1.18789236 C268.010211,1.43337638 268.134362,1.74204832 268.134362,2.11249502 L268.134362,42.6419885 C268.091426,43.0108202 267.948439,43.3192903 267.700744,43.5647743" id="Fill-14" fill="#FFFFFF"></path><path d="M312.593311,1.12625891 C312.818727,1.33197291 312.933157,1.59784664 312.933157,1.92711017 C312.933157,2.09184287 312.891841,2.29594184 312.809209,2.5430409 L295.877449,43.1339054 C295.631374,43.6676717 295.23887,43.9351604 294.703986,43.9351604 C294.456089,43.9351604 294.219533,43.8638974 293.992496,43.7199581 C293.76708,43.575817 293.611334,43.3812063 293.530321,43.1339054 L276.72251,2.72816331 C276.598561,2.48126613 276.536587,2.23436896 276.536587,1.98888493 C276.536587,1.65962141 276.649194,1.38264436 276.876231,1.15633878 C277.102052,0.931648218 277.379924,0.817586972 277.710252,0.817586972 C278.327768,0.817586972 278.780626,1.1468505 279.069637,1.80376252 L294.765961,39.4381192 L310.522436,1.61843823 C310.811447,1.08507573 311.202128,0.817586972 311.697721,0.817586972 C312.067542,0.817586972 312.366274,0.920343033 312.593311,1.12625891" id="Fill-16" fill="#FFFFFF"></path><path d="M323.436617,43.5647743 C323.188517,43.8116715 322.901328,43.935221 322.571203,43.935221 C322.159661,43.935221 321.838853,43.8116715 321.613436,43.5647743 C321.386399,43.3192903 321.27359,43.0108202 321.27359,42.6419885 L321.27359,2.11249502 C321.27359,1.74204832 321.397539,1.43337638 321.645233,1.18789236 C321.891308,0.940995184 322.200775,0.817445657 322.571203,0.817445657 C322.942644,0.817445657 323.250693,0.940995184 323.498591,1.18789236 C323.746083,1.43337638 323.870235,1.74204832 323.870235,2.11249502 L323.870235,42.6419885 C323.827298,43.0108202 323.684311,43.3192903 323.436617,43.5647743" id="Fill-18" fill="#FFFFFF"></path><path d="M363.433431,1.15631859 C363.681126,1.38262418 363.805075,1.65960122 363.805075,1.98906662 C363.805075,2.35769642 363.690645,2.64577677 363.465026,2.85007762 C363.237989,3.05740665 362.939662,3.15874956 362.568018,3.15874956 L348.788039,3.15874956 L348.788039,42.7036825 C348.788039,43.031331 348.664496,43.3194114 348.418218,43.5646935 C348.170726,43.8115907 347.881512,43.9351402 347.552805,43.9351402 C347.181364,43.9351402 346.882631,43.8115907 346.657215,43.5646935 C346.430178,43.3194114 346.317368,43.031331 346.317368,42.7036825 L346.317368,3.15874956 L332.536174,3.15874956 C332.205847,3.15874956 331.918659,3.04630334 331.670761,2.81999775 C331.424686,2.59510531 331.300738,2.31812827 331.300738,1.98906662 C331.300738,1.65960122 331.424686,1.38262418 331.670761,1.15631859 C331.918659,0.93162803 332.205847,0.817566784 332.536174,0.817566784 L362.568018,0.817566784 C362.89794,0.817566784 363.187154,0.93162803 363.433431,1.15631859" id="Fill-20" fill="#FFFFFF"></path><path d="M398.902391,2.54296015 L384.813351,21.6376202 L384.813351,42.703622 C384.813351,43.0312705 384.689402,43.3193508 384.442922,43.5648348 C384.195632,43.8115301 383.885558,43.9352815 383.515737,43.9352815 C383.144093,43.9352815 382.836247,43.8115301 382.588349,43.5648348 C382.342072,43.3193508 382.218326,43.0312705 382.218326,42.703622 L382.218326,21.8833061 L368.067311,2.54296015 C367.902249,2.33704427 367.819414,2.07137241 367.819414,1.74190701 C367.819414,1.45544168 367.953084,1.18795292 368.221437,0.941055747 C368.48979,0.695773599 368.7867,0.572224073 369.117027,0.572224073 C369.571303,0.572224073 369.920466,0.755731458 370.168363,1.12617816 L383.515737,19.2968412 L396.863516,1.12617816 C397.111008,0.755731458 397.460576,0.572224073 397.913029,0.572224073 C398.284673,0.572224073 398.583405,0.705060002 398.810442,0.972750642 C399.035859,1.2402394 399.150289,1.49500983 399.150289,1.74190701 C399.150289,1.94782288 399.066036,2.21531165 398.902391,2.54296015" id="Fill-22" fill="#FFFFFF"></path><path d="M166.39954,3.66796741 C166.238325,3.29085873 165.939593,2.99874081 165.55762,2.84571705 C164.770991,2.53058501 163.871958,2.91112562 163.55439,3.69340408 L148.08004,42.068856 C147.925914,42.4495985 147.929762,42.8674866 148.090977,43.244999 C148.252191,43.6221077 148.550721,43.9142256 148.930263,44.0660381 C149.114566,44.1411369 149.308793,44.17909 149.507881,44.17909 C150.138966,44.17909 150.699773,43.8025869 150.935924,43.2195624 L166.410476,4.84431233 C166.5644,4.46316608 166.560754,4.04568173 166.39954,3.66796741" id="Fill-24" fill="#8E0436"></path><path d="M181.956806,42.0688156 L180.356206,38.1196721 L165.477296,1.219345 C165.424031,1.0881241 165.296437,1.00232581 165.154463,1.00232581 L164.904945,1.00232581 C164.763984,1.00232581 164.636794,1.08711471 164.583124,1.21692246 L163.519028,3.78602585 C163.418168,4.11912506 163.433155,4.47382525 163.566218,4.80167563 L179.101124,43.2197239 C179.337477,43.8025466 179.898285,44.1790496 180.52937,44.1790496 C180.728052,44.1790496 180.922279,44.1412984 181.105367,44.0668053 C181.48653,43.9141853 181.78506,43.6220673 181.946274,43.2449587 C182.107691,42.8674462 182.111336,42.44976 181.956806,42.0688156" id="Fill-26" fill="#D61E57"></path></g></g></svg> 