<svg xmlns="http://www.w3.org/2000/svg" xmlns:xlink="http://www.w3.org/1999/xlink" width="300px" height="35px" viewBox="0 0 300 35"><title>PeakActivity_Logo_high_small</title><defs><polygon id="path-1" points="0.0811135022 0.0481631181 26.8228985 0.0481631181 26.8228985 33.3099213 0.0811135022 33.3099213"></polygon></defs><g id="Peak-Brand-Guideline-Basic---Stage-1" stroke="none" stroke-width="1" fill="none" fill-rule="evenodd"><g id="PeakActivity_Logo_high_small" transform="translate(-19.000000, -18.000000)"><g transform="translate(19.000000, 18.000000)"><path d="M17.009228,14.6803334 C18.2443102,13.3102358 18.8631424,11.5614649 18.8631424,9.43765459 C18.8631424,7.31248161 18.2526646,5.61836929 17.0324684,4.35531764 C15.8116646,3.09317444 14.1506606,2.46164861 12.0503677,2.46164861 L1.94672405,2.46164861 L1.94672405,16.7366154 L12.0503677,16.7366154 C14.1198253,16.7366154 15.7729306,16.0514909 17.009228,14.6803334 M18.3997018,3.06243846 C20.0058706,4.69477602 20.8092589,6.81979759 20.8092589,9.43765459 C20.8092589,11.1626543 20.445919,12.725041 19.7206063,14.1258746 C18.9940784,15.5280709 17.966185,16.6201821 16.6382932,17.4061448 C15.3096419,18.1908963 13.7803334,18.5838019 12.0503677,18.5838019 L1.94672405,18.5838019 L1.94672405,32.0276862 C1.94672405,32.2734226 1.84616761,32.4894828 1.64535853,32.6735959 C1.44409376,32.8587687 1.22019619,32.9514309 0.973665822,32.9514309 C0.695540686,32.9514309 0.463896322,32.8587687 0.278125136,32.6735959 C0.0929615418,32.4894828 0,32.2734226 0,32.0276862 L0,1.53805534 C0,1.29110769 0.0929615418,1.07504743 0.278125136,0.89093441 C0.463896322,0.705761529 0.679439504,0.613099384 0.927185051,0.613099384 L12.0503677,0.613099384 C14.6759237,0.613099384 16.7924696,1.4299495 18.3997018,3.06243846" id="Fill-1" fill="#FFFFFF"></path><path d="M44.1380641,31.3806864 C44.3232277,31.5647994 44.4161893,31.7808597 44.4161893,32.0275045 C44.4161893,32.3044311 44.3232277,32.5274561 44.1380641,32.6973367 C43.9529005,32.8670659 43.7361422,32.9514006 43.4894599,32.9514006 L26.0170951,32.9514006 C25.7693495,32.9514006 25.5536544,32.8587384 25.3678833,32.6735656 C25.1827197,32.4894525 25.0897581,32.2733923 25.0897581,32.0275045 L25.0897581,1.53802505 C25.0897581,1.29107741 25.1827197,1.07501715 25.3678833,0.890904128 C25.5536544,0.705731247 25.7693495,0.613220511 26.0170951,0.613220511 L43.4894599,0.613220511 C43.7361422,0.613220511 43.9529005,0.705731247 44.1380641,0.890904128 C44.3232277,1.07501715 44.4161893,1.29107741 44.4161893,1.53802505 C44.4161893,1.81464881 44.3232277,2.03903655 44.1380641,2.20755447 C43.9529005,2.37728366 43.7361422,2.46161833 43.4894599,2.46161833 L27.0366341,2.46161833 L27.0366341,15.3499839 L41.4034454,15.3499839 C41.6505834,15.3499839 41.8673417,15.4424947 42.0526572,15.627819 C42.2378208,15.8117806 42.3306305,16.0278408 42.3306305,16.2744857 C42.3306305,16.5514122 42.2378208,16.7745887 42.0526572,16.9443179 C41.8673417,17.1138957 41.6505834,17.1983818 41.4034454,17.1983818 L27.0366341,17.1983818 L27.0366341,31.1028514 L43.4894599,31.1028514 C43.7361422,31.1028514 43.9529005,31.1955135 44.1380641,31.3806864" id="Fill-3" fill="#FFFFFF"></path><path d="M55.8775119,21.0780943 L69.9204769,21.0780943 L62.829577,3.66306177 L55.8775119,21.0780943 Z M76.4086456,32.0727909 C76.4086456,32.3506259 76.3156841,32.5666861 76.1305205,32.7199118 C75.9453569,32.8741973 75.7137126,32.9514157 75.4355874,32.9514157 C75.218829,32.9514157 75.0253111,32.8976656 74.8560968,32.790014 C74.6858192,32.6819082 74.5703767,32.5359502 74.5084024,32.3506259 L70.61541,22.8341328 L70.6618907,22.9266435 L55.1360981,22.9266435 L51.3819404,32.3506259 C51.2271564,32.7507992 50.9490312,32.9514157 50.5477169,32.9514157 C50.2695917,32.9514157 50.0450866,32.8741973 49.8758722,32.7199118 C49.7055947,32.5666861 49.6048863,32.3815133 49.5745067,32.165453 C49.5435195,32.0431147 49.5584055,31.8888292 49.6209875,31.7036564 L62.0875556,1.12121195 C62.1805171,0.875475578 62.2965671,0.714073868 62.4354019,0.637006823 C62.5740847,0.559788369 62.7516534,0.521784777 62.9684117,0.521784777 C63.4317005,0.521784777 63.7402052,0.722401348 63.8949892,1.12121195 L76.3621649,31.7036564 C76.3925445,31.7961671 76.4086456,31.9195652 76.4086456,32.0727909 L76.4086456,32.0727909 Z" id="Fill-5" fill="#FFFFFF"></path><path d="M105.961864,32.2118144 C105.961864,32.5512727 105.846422,32.7970091 105.614625,32.951446 C105.382525,33.1045202 105.142982,33.1815873 104.895844,33.1815873 C104.648251,33.1815873 104.432556,33.0736329 104.247392,32.8584811 L90.3438694,15.7203751 L83.3918043,22.140711 L83.3918043,31.9815217 C83.3606652,32.2581454 83.2529695,32.489498 83.0671984,32.673611 C82.8820348,32.8584811 82.6651245,32.951446 82.4185941,32.951446 C82.1090261,32.951446 81.869635,32.8584811 81.6998131,32.673611 C81.5301431,32.489498 81.4449283,32.2581454 81.4449283,31.9815217 L81.4449283,1.58425014 C81.4449283,1.30641511 81.5378899,1.07506257 81.7230534,0.89094955 C81.9088246,0.70577667 82.140469,0.613114525 82.4185941,0.613114525 C82.6967193,0.613114525 82.9283636,0.70577667 83.1136791,0.89094955 C83.2988427,1.07506257 83.3918043,1.30641511 83.3918043,1.58425014 L83.3918043,19.7853968 L103.413017,1.07506257 C103.59818,0.89094955 103.814483,0.798287406 104.062228,0.798287406 C104.308759,0.798287406 104.525517,0.89094955 104.710681,1.07506257 C104.895844,1.26023545 104.988806,1.47629571 104.988806,1.72203209 C104.988806,1.96897973 104.895844,2.18382872 104.710681,2.36900161 L91.8731779,14.2874429 L105.73022,31.5648448 C105.884396,31.7807537 105.961864,31.996814 105.961864,32.2118144" id="Fill-7" fill="#FFFFFF"></path><g id="Group-11" transform="translate(137.771435, 0.103261)"><mask id="mask-2" fill="white"><use xlink:href="#path-1"></use></mask><g id="Clip-10"></g><path d="M26.8228985,3.92907177 C26.8228985,4.17601942 26.7603165,4.37542472 26.6369754,4.52971022 C26.4519637,4.77665786 26.2201674,4.89899612 25.9420423,4.89899612 C25.8182455,4.89899612 25.6330819,4.83722135 25.3859439,4.71382324 C22.5124905,2.77397454 19.4689114,1.80389879 16.256118,1.80389879 C13.6607897,1.80389879 11.2738654,2.44390351 9.095497,3.72118758 C6.91712858,4.99983433 5.1943021,6.77010524 3.92808084,9.03396862 C2.66094819,11.2967721 2.02783755,13.8457382 2.02783755,16.679504 C2.02783755,19.5134213 2.66094819,22.061176 3.92808084,24.3239796 C5.1943021,26.5879943 6.91712858,28.3593251 9.095497,29.6367606 C11.2738654,30.9151045 13.6607897,31.5540494 16.256118,31.5540494 C19.4997467,31.5540494 22.528136,30.5992659 25.3393113,28.690456 C25.4936396,28.5670579 25.6795626,28.5051317 25.8957134,28.5051317 C26.2042181,28.5051317 26.4519637,28.6288327 26.6369754,28.874569 C26.7603165,29.0287031 26.8228985,29.2140274 26.8228985,29.4290278 C26.8228985,29.7375988 26.6991016,29.9833352 26.4519637,30.1686595 C25.2471092,31.030478 23.6945603,31.7701097 21.7944689,32.3861918 C19.8940737,33.0013655 18.0474504,33.3099365 16.256118,33.3099365 C13.3200826,33.3099365 10.6170587,32.586657 8.14567915,31.1385838 C5.67308442,29.6911163 3.71147437,27.6969119 2.25948192,25.156122 C0.807033777,22.6156348 0.0811135022,19.790045 0.0811135022,16.679504 C0.0811135022,13.5691144 0.807033777,10.7424648 2.25948192,8.20182623 C3.71147437,5.66118768 5.67308442,3.66789171 8.14567915,2.21951576 C10.6170587,0.772199681 13.3200826,0.0481631181 16.256118,0.0481631181 C18.1098805,0.0481631181 19.908656,0.325846735 21.6550266,0.880305516 C23.4004859,1.4347643 24.984022,2.20407207 26.4054829,3.18944011 C26.6836081,3.40550037 26.8228985,3.65123675 26.8228985,3.92907177" id="Fill-9" fill="#FFFFFF" mask="url(#mask-2)"></path></g><path d="M192.619353,0.867238943 C192.805124,1.03696813 192.897933,1.24470092 192.897933,1.49179997 C192.897933,1.76827231 192.812263,1.98433258 192.643049,2.13755822 C192.472771,2.29305498 192.249025,2.36906217 191.970293,2.36906217 L181.63546,2.36906217 L181.63546,32.0277619 C181.63546,32.2734983 181.542651,32.4895585 181.357943,32.6735201 C181.172324,32.858693 180.955413,32.9513552 180.708883,32.9513552 C180.431517,32.9513552 180.206253,32.858693 180.03719,32.6735201 C179.866913,32.4895585 179.782305,32.2734983 179.782305,32.0277619 L179.782305,2.36906217 L169.44641,2.36906217 C169.198664,2.36906217 168.983273,2.2847275 168.797958,2.11499831 C168.612186,1.94632899 168.519832,1.7385962 168.519832,1.49179997 C168.519832,1.24470092 168.612186,1.03696813 168.797958,0.867238943 C168.983273,0.698721023 169.198664,0.613175088 169.44641,0.613175088 L191.970293,0.613175088 C192.217886,0.613175088 192.434645,0.698721023 192.619353,0.867238943" id="Fill-12" fill="#FFFFFF"></path><path d="M200.775558,32.6735807 C200.589483,32.8587536 200.374092,32.9514157 200.126498,32.9514157 C199.817842,32.9514157 199.577235,32.8587536 199.408173,32.6735807 C199.237895,32.4894677 199.153288,32.2581151 199.153288,31.9814914 L199.153288,1.58437127 C199.153288,1.30653624 199.24625,1.07503229 199.432021,0.890919269 C199.616577,0.705746388 199.848677,0.613084243 200.126498,0.613084243 C200.405231,0.613084243 200.636116,0.705746388 200.822039,0.890919269 C201.007658,1.07503229 201.100772,1.30653624 201.100772,1.58437127 L201.100772,31.9814914 C201.068569,32.2581151 200.96133,32.4894677 200.775558,32.6735807" id="Fill-14" fill="#FFFFFF"></path><path d="M234.444983,0.844694182 C234.614046,0.998979682 234.699868,1.19838498 234.699868,1.44533263 C234.699868,1.56888215 234.668881,1.72195638 234.606906,1.90728067 L221.908086,32.350429 C221.72353,32.7507537 221.429152,32.9513703 221.02799,32.9513703 C220.842067,32.9513703 220.66465,32.897923 220.494372,32.7899686 C220.32531,32.6818628 220.2085,32.5359047 220.147741,32.350429 L207.541883,2.04612248 C207.448921,1.8609496 207.40244,1.67577672 207.40244,1.4916637 C207.40244,1.24471606 207.486896,1.03698327 207.657173,0.867254084 C207.826539,0.698736163 208.034943,0.613190229 208.282689,0.613190229 C208.745826,0.613190229 209.08547,0.860137873 209.302228,1.35282189 L221.07447,29.5785894 L232.891827,1.21382867 C233.108585,0.813806801 233.401596,0.613190229 233.773291,0.613190229 C234.050656,0.613190229 234.274706,0.690257274 234.444983,0.844694182" id="Fill-16" fill="#FFFFFF"></path><path d="M242.577462,32.6735807 C242.391387,32.8587536 242.175996,32.9514157 241.928403,32.9514157 C241.619746,32.9514157 241.37914,32.8587536 241.210077,32.6735807 C241.0398,32.4894677 240.955192,32.2581151 240.955192,31.9814914 L240.955192,1.58437127 C240.955192,1.30653624 241.048154,1.07503229 241.233925,0.890919269 C241.418481,0.705746388 241.650581,0.613084243 241.928403,0.613084243 C242.206983,0.613084243 242.43802,0.705746388 242.623943,0.890919269 C242.809562,1.07503229 242.902676,1.30653624 242.902676,1.58437127 L242.902676,31.9814914 C242.870474,32.2581151 242.763234,32.4894677 242.577462,32.6735807" id="Fill-18" fill="#FFFFFF"></path><path d="M272.575074,0.867238943 C272.760845,1.03696813 272.853806,1.24470092 272.853806,1.49179997 C272.853806,1.76827231 272.767984,1.98433258 272.59877,2.13755822 C272.428492,2.29305498 272.204746,2.36906217 271.926014,2.36906217 L261.591029,2.36906217 L261.591029,32.0277619 C261.591029,32.2734983 261.498372,32.4895585 261.313664,32.6735201 C261.128044,32.858693 260.911134,32.9513552 260.664604,32.9513552 C260.386023,32.9513552 260.161974,32.858693 259.992911,32.6735201 C259.822634,32.4895585 259.738026,32.2734983 259.738026,32.0277619 L259.738026,2.36906217 L249.402131,2.36906217 C249.154385,2.36906217 248.938994,2.2847275 248.753071,2.11499831 C248.568515,1.94632899 248.475553,1.7385962 248.475553,1.49179997 C248.475553,1.24470092 248.568515,1.03696813 248.753071,0.867238943 C248.938994,0.698721023 249.154385,0.613175088 249.402131,0.613175088 L271.926014,0.613175088 C272.173455,0.613175088 272.390366,0.698721023 272.575074,0.867238943" id="Fill-20" fill="#FFFFFF"></path><path d="M299.176793,1.90722011 L288.610013,16.2282152 L288.610013,32.0277165 C288.610013,32.2734528 288.517051,32.4895131 288.332192,32.6736261 C288.146724,32.8586476 287.914168,32.9514612 287.636803,32.9514612 C287.35807,32.9514612 287.127185,32.8586476 286.941262,32.6736261 C286.756554,32.4895131 286.663745,32.2734528 286.663745,32.0277165 L286.663745,16.4124796 L276.050483,1.90722011 C275.926686,1.7527832 275.86456,1.55352931 275.86456,1.30643026 C275.86456,1.09158126 275.964813,0.890964691 276.166078,0.70579181 C276.367342,0.521830199 276.590025,0.429168055 276.83777,0.429168055 C277.178477,0.429168055 277.440349,0.566798593 277.626273,0.844633619 L287.636803,14.4726309 L297.647637,0.844633619 C297.833256,0.566798593 298.095432,0.429168055 298.434772,0.429168055 C298.713505,0.429168055 298.937554,0.528795001 299.107832,0.729562982 C299.276894,0.930179553 299.362716,1.12125737 299.362716,1.30643026 C299.362716,1.46086716 299.299527,1.66148374 299.176793,1.90722011" id="Fill-22" fill="#FFFFFF"></path><path d="M124.799655,2.75097556 C124.678744,2.46814404 124.454694,2.24905561 124.168215,2.13428779 C123.578243,1.89793875 122.903968,2.18334422 122.665792,2.77005306 L111.06003,31.551642 C110.944436,31.8371989 110.947322,32.1506149 111.068232,32.4337493 C111.189143,32.7165808 111.413041,32.9356692 111.697698,33.0495286 C111.835925,33.1058526 111.981595,33.1343175 112.13091,33.1343175 C112.604224,33.1343175 113.02483,32.8519402 113.201943,32.4146718 L124.807857,3.63323425 C124.9233,3.34737456 124.920565,3.0342613 124.799655,2.75097556" id="Fill-24" fill="#8E0436"></path><path d="M136.467604,31.5516117 L135.267155,28.5897541 L124.107972,0.914508749 C124.068023,0.816093073 123.972327,0.751744361 123.865847,0.751744361 L123.678709,0.751744361 C123.572988,0.751744361 123.477596,0.815336029 123.437343,0.912691845 L122.639271,2.83951938 C122.563626,3.08934379 122.574866,3.35536894 122.674663,3.60125672 L134.325843,32.4147929 C134.503108,32.8519099 134.923713,33.1342872 135.397027,33.1342872 C135.546039,33.1342872 135.691709,33.1059738 135.829025,33.0501039 C136.114897,32.9356389 136.338795,32.7165505 136.459705,32.433719 C136.580768,32.1505847 136.583502,31.83732 136.467604,31.5516117" id="Fill-26" fill="#D61E57"></path></g></g></g></svg>